<svg width="24" height="25" viewBox="0 0 24 25" fill="none" xmlns="http://www.w3.org/2000/svg">
<g clip-path="url(#clip0_372_10060)">
<path d="M21.6826 19.3464C21.3196 20.1848 20.89 20.9567 20.3923 21.6663C19.7138 22.6337 19.1582 23.3033 18.7301 23.6751C18.0664 24.2855 17.3553 24.598 16.5939 24.6158C16.0472 24.6158 15.388 24.4603 14.6206 24.1447C13.8507 23.8307 13.1432 23.6751 12.4962 23.6751C11.8177 23.6751 11.09 23.8307 10.3117 24.1447C9.53216 24.4603 8.90418 24.6247 8.42404 24.641C7.69385 24.6721 6.96602 24.3506 6.23952 23.6751C5.77583 23.2707 5.19585 22.5774 4.50106 21.5952C3.7556 20.5463 3.14273 19.3301 2.6626 17.9434C2.14839 16.4457 1.89062 14.9954 1.89062 13.5913C1.89062 11.9829 2.23817 10.5957 2.9343 9.43317C3.48139 8.49942 4.20922 7.76285 5.12015 7.22213C6.03108 6.68141 7.01535 6.40586 8.07532 6.38823C8.6553 6.38823 9.41586 6.56763 10.361 6.92021C11.3035 7.27398 11.9087 7.45338 12.174 7.45338C12.3724 7.45338 13.0446 7.24361 14.1843 6.8254C15.262 6.43756 16.1716 6.27697 16.9168 6.34023C18.936 6.50319 20.453 7.29916 21.4618 8.73319C19.656 9.82738 18.7627 11.3599 18.7805 13.3259C18.7967 14.8573 19.3523 16.1316 20.4441 17.1435C20.9389 17.6131 21.4915 17.976 22.1063 18.2338C21.9729 18.6204 21.8322 18.9908 21.6826 19.3464ZM17.0516 1.1232C17.0516 2.32348 16.6131 3.44417 15.7391 4.48147C14.6843 5.71462 13.4085 6.42719 12.025 6.31475C12.0073 6.17075 11.9971 6.0192 11.9971 5.85995C11.9971 4.70769 12.4987 3.47454 13.3895 2.46627C13.8342 1.95577 14.3999 1.53129 15.0858 1.19268C15.7702 0.859121 16.4176 0.674655 17.0264 0.643066C17.0442 0.803524 17.0516 0.963992 17.0516 1.12319V1.1232Z" fill="black"/>
</g>
<defs>
<clipPath id="clip0_372_10060">
<rect width="24" height="24" fill="white" transform="translate(0 0.643066)"/>
</clipPath>
</defs>
</svg>
