<svg width="19" height="13" viewBox="0 0 19 13" fill="none" xmlns="http://www.w3.org/2000/svg">
<path d="M18.1514 2.00639L15.922 0.100013C15.8471 0.0359843 15.7454 0 15.6393 0C15.5333 0 15.4316 0.0359843 15.3567 0.100013L5.94076 8.13404C5.86586 8.19807 5.76416 8.23405 5.65809 8.23405C5.55203 8.23405 5.45033 8.19807 5.37542 8.13404L3.14602 6.22766C3.07111 6.16363 2.96941 6.12765 2.86335 6.12765C2.75729 6.12765 2.65558 6.16363 2.58068 6.22766L0.35127 8.13404C0.19541 8.26697 0.19541 8.48246 0.35127 8.6154L5.37542 12.9C5.45033 12.964 5.55203 13 5.65809 13C5.76416 13 5.86586 12.964 5.94076 12.9L18.1514 2.48299C18.3036 2.35061 18.3036 2.13876 18.1514 2.00639Z" fill="#1458E9"/>
</svg>
