<svg width="23" height="26" viewBox="0 0 23 26" fill="none" xmlns="http://www.w3.org/2000/svg">
<path d="M1.5 13C1.5 7.47715 5.97715 3 11.5 3C17.0228 3 21.5 7.47715 21.5 13C21.5 18.5228 17.0228 23 11.5 23C5.97715 23 1.5 18.5228 1.5 13Z" fill="white"/>
<path d="M1.5 13C1.5 7.47715 5.97715 3 11.5 3C17.0228 3 21.5 7.47715 21.5 13C21.5 18.5228 17.0228 23 11.5 23C5.97715 23 1.5 18.5228 1.5 13Z" stroke="#1458E9" stroke-width="2"/>
<path d="M16.1654 10.0835L10.1612 16.0877C9.93337 16.3155 9.56402 16.3155 9.33622 16.0877L6.83203 13.5835" stroke="#1458E9" stroke-width="2" stroke-linecap="round"/>
</svg>
