<svg width="24" height="25" viewBox="0 0 24 25" fill="none" xmlns="http://www.w3.org/2000/svg">
<g clip-path="url(#clip0_372_10058)">
<path d="M24 12.6431C24 6.01565 18.6274 0.643066 12 0.643066C5.37258 0.643066 0 6.01565 0 12.6431C0 18.6325 4.3882 23.5971 10.125 24.4973V16.1118H7.07812V12.6431H10.125V9.99932C10.125 6.99182 11.9166 5.33057 14.6576 5.33057C15.9701 5.33057 17.3438 5.56494 17.3438 5.56494V8.51807H15.8306C14.34 8.51807 13.875 9.44314 13.875 10.3931V12.6431H17.2031L16.6711 16.1118H13.875V24.4973C19.6118 23.5971 24 18.6325 24 12.6431Z" fill="black"/>
</g>
<defs>
<clipPath id="clip0_372_10058">
<rect width="24" height="24" fill="white" transform="translate(0 0.643066)"/>
</clipPath>
</defs>
</svg>
