<svg width="24" height="25" viewBox="0 0 24 25" fill="none" xmlns="http://www.w3.org/2000/svg">
<g clip-path="url(#clip0_372_10059)">
<path d="M23.7643 12.9193C23.7643 12.1036 23.6982 11.2835 23.5571 10.481H12.2383V15.1019H18.72C18.451 16.5923 17.5868 17.9107 16.3213 18.7485V21.7468H20.1883C22.4591 19.6568 23.7643 16.5702 23.7643 12.9193Z" fill="black"/>
<path d="M12.2391 24.6434C15.4756 24.6434 18.205 23.5808 20.1936 21.7465L16.3266 18.7481C15.2507 19.4801 13.8618 19.8946 12.2435 19.8946C9.11291 19.8946 6.45849 17.7825 5.50607 14.9429H1.51562V18.0338C3.55274 22.086 7.70192 24.6434 12.2391 24.6434Z" fill="black"/>
<path d="M5.50082 14.9433C4.99816 13.4529 4.99816 11.8391 5.50082 10.3488V7.25781H1.51478C-0.187219 10.6486 -0.187219 14.6434 1.51478 18.0342L5.50082 14.9433Z" fill="black"/>
<path d="M12.2391 5.39273C13.9499 5.36627 15.6034 6.01003 16.8425 7.19173L20.2685 3.76568C18.0991 1.72857 15.2198 0.6086 12.2391 0.643875C7.70192 0.643875 3.55274 3.20129 1.51562 7.25787L5.50166 10.3488C6.44967 7.5048 9.1085 5.39273 12.2391 5.39273Z" fill="black"/>
</g>
<defs>
<clipPath id="clip0_372_10059">
<rect width="24" height="24" fill="white" transform="translate(0 0.643066)"/>
</clipPath>
</defs>
</svg>
