<svg width="24" height="25" viewBox="0 0 24 25" fill="none" xmlns="http://www.w3.org/2000/svg">
<g clip-path="url(#clip0_372_10061)">
<path d="M16.8503 0.643066H7.14973C3.20735 0.643066 0 3.85042 0 7.7928V17.4933C0 21.4357 3.20735 24.6431 7.14973 24.6431H16.8503C20.7926 24.6431 24 21.4357 24 17.4933V7.7928C24 3.85042 20.7926 0.643066 16.8503 0.643066ZM21.5856 17.4933C21.5856 20.1086 19.4655 22.2287 16.8503 22.2287H7.14973C4.5345 22.2287 2.4144 20.1086 2.4144 17.4933V7.7928C2.4144 5.17752 4.5345 3.05747 7.14973 3.05747H16.8503C19.4655 3.05747 21.5856 5.17752 21.5856 7.7928V17.4933Z" fill="black"/>
<path d="M12.0002 6.43555C8.57754 6.43555 5.79297 9.22011 5.79297 12.6428C5.79297 16.0654 8.57754 18.85 12.0002 18.85C15.4229 18.85 18.2075 16.0654 18.2075 12.6428C18.2075 9.22007 15.4229 6.43555 12.0002 6.43555ZM12.0002 16.4357C9.90547 16.4357 8.20737 14.7376 8.20737 12.6428C8.20737 10.548 9.90551 8.84995 12.0002 8.84995C14.095 8.84995 15.7931 10.548 15.7931 12.6428C15.7931 14.7375 14.0949 16.4357 12.0002 16.4357Z" fill="black"/>
<path d="M18.2178 7.9698C19.0392 7.9698 19.7052 7.3039 19.7052 6.48246C19.7052 5.66102 19.0392 4.99512 18.2178 4.99512C17.3964 4.99512 16.7305 5.66102 16.7305 6.48246C16.7305 7.3039 17.3964 7.9698 18.2178 7.9698Z" fill="white"/>
</g>
<defs>
<clipPath id="clip0_372_10061">
<rect width="24" height="24" fill="white" transform="translate(0 0.643066)"/>
</clipPath>
</defs>
</svg>
