<svg width="595" height="344" viewBox="0 0 595 344" fill="none" xmlns="http://www.w3.org/2000/svg">
<g filter="url(#filter0_d_372_10404)">
<rect x="265" y="129" width="308.077" height="193.091" rx="6" fill="#201F27"/>
</g>
<circle cx="419.5" cy="225.5" r="48.5" fill="#A88C42"/>
<path d="M407.72 233H400.742V220.396H402.833V231.233H407.72V233ZM413.13 233.211C411.741 233.211 410.631 232.792 409.799 231.954C408.973 231.11 408.56 229.994 408.56 228.605C408.56 227.094 408.99 225.913 409.852 225.063C410.719 224.214 411.885 223.789 413.35 223.789C414.756 223.789 415.852 224.202 416.637 225.028C417.422 225.854 417.815 227 417.815 228.465C417.815 229.9 417.39 231.052 416.54 231.919C415.696 232.78 414.56 233.211 413.13 233.211ZM413.227 225.415C412.43 225.415 411.8 225.693 411.337 226.25C410.874 226.807 410.643 227.574 410.643 228.553C410.643 229.496 410.877 230.24 411.346 230.785C411.815 231.324 412.442 231.594 413.227 231.594C414.029 231.594 414.645 231.327 415.072 230.794C415.506 230.261 415.723 229.502 415.723 228.518C415.723 227.527 415.506 226.763 415.072 226.224C414.645 225.685 414.029 225.415 413.227 225.415ZM427.909 232.279C427.909 235.584 426.248 237.236 422.926 237.236C421.754 237.236 420.731 237.04 419.858 236.647V234.784C420.843 235.347 421.777 235.628 422.662 235.628C424.801 235.628 425.87 234.576 425.87 232.473V231.488H425.835C425.161 232.637 424.147 233.211 422.794 233.211C421.698 233.211 420.813 232.812 420.139 232.016C419.472 231.213 419.138 230.138 419.138 228.79C419.138 227.261 419.498 226.045 420.219 225.143C420.939 224.24 421.93 223.789 423.189 223.789C424.379 223.789 425.261 224.275 425.835 225.248H425.87V224H427.909V232.279ZM425.888 228.878V227.709C425.888 227.076 425.677 226.537 425.255 226.092C424.839 225.641 424.317 225.415 423.69 225.415C422.917 225.415 422.31 225.702 421.871 226.276C421.437 226.845 421.221 227.642 421.221 228.667C421.221 229.552 421.429 230.261 421.845 230.794C422.266 231.321 422.823 231.585 423.514 231.585C424.218 231.585 424.789 231.333 425.228 230.829C425.668 230.319 425.888 229.669 425.888 228.878ZM434.374 233.211C432.985 233.211 431.875 232.792 431.042 231.954C430.216 231.11 429.803 229.994 429.803 228.605C429.803 227.094 430.234 225.913 431.095 225.063C431.962 224.214 433.128 223.789 434.593 223.789C436 223.789 437.095 224.202 437.88 225.028C438.666 225.854 439.058 227 439.058 228.465C439.058 229.9 438.633 231.052 437.784 231.919C436.94 232.78 435.803 233.211 434.374 233.211ZM434.47 225.415C433.673 225.415 433.043 225.693 432.581 226.25C432.118 226.807 431.886 227.574 431.886 228.553C431.886 229.496 432.121 230.24 432.589 230.785C433.058 231.324 433.685 231.594 434.47 231.594C435.273 231.594 435.888 231.327 436.316 230.794C436.75 230.261 436.966 229.502 436.966 228.518C436.966 227.527 436.75 226.763 436.316 226.224C435.888 225.685 435.273 225.415 434.47 225.415Z" fill="white"/>
<g filter="url(#filter1_d_372_10404)">
<rect x="22" y="22" width="308.077" height="193.091" rx="6" fill="#201F27"/>
</g>
<g filter="url(#filter2_d_372_10404)">
<path d="M22 208.69L330.305 208.69C330.305 212.225 327.44 215.091 323.904 215.091L28.4008 215.091C24.8657 215.091 22 212.225 22 208.69Z" fill="#A88C42"/>
</g>
<path d="M77.1932 48.8408L59.6836 48.8408L59.6836 66.3505H77.1932V48.8408ZM74.7605 63.9177H62.1163L62.1163 51.2736L74.7605 51.2736V63.9177Z" fill="#A88C42"/>
<path d="M72.2391 53.7979H64.6406V61.3964H72.2391V53.7979Z" fill="#A88C42"/>
<path d="M94.957 48.8403V66.35H112.467V48.8403L94.957 48.8403ZM110.034 63.9172H97.3898V51.2731L110.034 51.2731V63.9172Z" fill="#A88C42"/>
<path d="M107.513 53.7974H99.9141V61.3959H107.513V53.7974Z" fill="#A88C42"/>
<path d="M59.6836 101.399H77.1932V83.8896H59.6836L59.6836 101.399ZM62.1163 86.3224H74.7605V98.9665H62.1163L62.1163 86.3224Z" fill="#A88C42"/>
<path d="M72.2391 88.8447H64.6406V96.4432H72.2391V88.8447Z" fill="#A88C42"/>
<path d="M64.6392 68.8447H59.6836V71.3594H64.6392V68.8447Z" fill="#A88C42"/>
<path d="M74.7161 71.4798H77.2425V73.8878H72.2383V74.2319V76.4029V78.9099V81.4246V81.4258H74.7161V81.4246H79.7917V78.9099H74.7161V76.4029H79.7917V78.9087H82.2695V76.4029V74.2319V73.8878H79.7203V68.9565H77.2425V68.9651H74.7161V71.4798Z" fill="#A88C42"/>
<path d="M89.644 76.4043V78.9194H87.1663V81.4264H84.6885V83.9427H82.2708V86.4416H79.793V81.4276L82.2708 81.4264V78.9117H84.7485V76.4043H89.644Z" fill="#A88C42"/>
<path d="M94.7595 88.8447V86.44V86.3296V83.9253H92.2817V86.3296H84.7481V88.8447H87.1959V91.5088H84.7481V88.8447H82.2703V91.4572H79.7305V93.9724H82.2703V96.4432H79.7305V101.399H82.2703H84.626H84.7481V96.4432H87.1959V93.9245H89.6737V88.8447H94.7595Z" fill="#A88C42"/>
<path d="M92.1523 96.4441V98.9588H99.7009V101.473H107.319V98.9588H102.164V96.4441V93.9253H99.6859V96.4441H92.1523Z" fill="#A88C42"/>
<path d="M92.1521 98.958H87.2266V101.473H92.1521V98.958Z" fill="#A88C42"/>
<path d="M94.8091 73.8887H89.6445V76.4034H94.8091V73.8887Z" fill="#A88C42"/>
<path d="M109.61 76.4055V78.8873H112.077V81.4065H109.599V78.8873H107.122V81.4065H104.644V78.8873H102.184V73.8904L107.094 73.8859V71.441H104.555V68.9263H109.572V71.441H109.572V73.8904H112.153V76.4055H109.61Z" fill="#A88C42"/>
<path d="M87.168 81.4267V83.9414H89.6458V81.4332H92.1235V78.9185H89.6458V81.4267H87.168Z" fill="#A88C42"/>
<path d="M92.1536 93.9258H89.6758V96.4446H92.1536V93.9258Z" fill="#A88C42"/>
<path d="M107.122 93.9224H104.645V96.4411H107.122V93.9224Z" fill="#A88C42"/>
<path d="M97.2395 78.918H94.7617V81.4327H97.2395V78.918Z" fill="#A88C42"/>
<path d="M94.8086 73.8893H97.2864V71.4448H102.289V68.9297H94.8086V71.4448V73.8893Z" fill="#A88C42"/>
<path d="M62.1614 73.8784H59.6836V81.427H62.1614V73.8784Z" fill="#A88C42"/>
<path d="M82.1844 68.9664H82.268L82.268 73.8891H84.7457V71.2989H87.2235V68.9664H90.9098V68.9578H92.2927V58.8795H89.8149V61.492H87.2235V63.9698H89.8149V66.4886H87.2235V63.9698H84.7457V66.4886H82.1965V58.9201H84.6743V48.8418H82.1965V51.3614H79.7188V56.4005H82.1965V58.8795H79.7188V68.9578H82.1844V68.9664Z" fill="#A88C42"/>
<path d="M109.597 86.4118V89.0413H107.12V86.4118H104.641V81.4059H102.18V78.8867H99.702V81.4327H97.2401V88.8445H94.7578V91.3596H97.0063V93.9247H99.6833V91.3596H102.161V88.8384L102.163 88.8417H104.641V88.8311L104.642 88.8417V91.3568H107.12V93.9218H109.597V98.9309H112.075V86.4122H109.597V86.4118ZM102.161 86.3266H99.7178V83.9088H102.163L102.161 86.3266Z" fill="#A88C42"/>
<path d="M109.599 81.4067H107.121V86.4126H109.599V81.4067Z" fill="#A88C42"/>
<path d="M104.647 91.3579H102.168V93.9229H104.647V91.3579Z" fill="#A88C42"/>
<path d="M92.2763 51.3201V48.8423H89.818H87.9249H87.2266V53.9245H89.818V51.3201H92.2763Z" fill="#A88C42"/>
<path d="M89.818 56.4019H87.2266V58.8796H89.818V56.4019Z" fill="#A88C42"/>
<path d="M92.4078 53.9233H89.8164V56.4011H92.4078V53.9233Z" fill="#A88C42"/>
<path d="M69.5989 78.9097H67.1211V81.4268H69.5989V78.9097Z" fill="#A88C42"/>
<path d="M69.5962 76.5154V68.9668H67.1184V71.3618H64.6406V78.9104H67.1184V76.5154H69.5962Z" fill="#A88C42"/>
<path d="M55.5234 56.0897C54.982 56.0897 54.543 55.6506 54.543 55.1093V44.6767C54.543 44.1354 54.982 43.6963 55.5234 43.6963H65.9555C66.4969 43.6963 66.9359 44.1354 66.9359 44.6767C66.9359 45.218 66.4969 45.6571 65.9555 45.6571H56.5038V55.1089C56.5038 55.6502 56.0647 56.0893 55.5234 56.0893V56.0897Z" fill="#A88C42"/>
<path d="M116.631 56.0917C116.09 56.0917 115.651 55.6526 115.651 55.1113V45.6595H106.199C105.658 45.6595 105.219 45.2205 105.219 44.6791C105.219 44.1378 105.658 43.6987 106.199 43.6987H116.631C117.173 43.6987 117.612 44.1378 117.612 44.6791V55.1113C117.612 55.6526 117.173 56.0917 116.631 56.0917Z" fill="#A88C42"/>
<path d="M65.9555 106.614H55.5234C54.982 106.614 54.543 106.175 54.543 105.634V95.2016C54.543 94.6603 54.982 94.2212 55.5234 94.2212C56.0647 94.2212 56.5038 94.6603 56.5038 95.2016V104.653H65.9555C66.4969 104.653 66.9359 105.092 66.9359 105.634C66.9359 106.175 66.4969 106.614 65.9555 106.614Z" fill="#A88C42"/>
<path d="M116.631 106.614H106.199C105.658 106.614 105.219 106.175 105.219 105.634C105.219 105.092 105.658 104.653 106.199 104.653H115.651V95.2016C115.651 94.6603 116.09 94.2212 116.631 94.2212C117.173 94.2212 117.612 94.6603 117.612 95.2016V105.634C117.612 106.175 117.173 106.614 116.631 106.614Z" fill="#A88C42"/>
<path d="M66.7984 174.591L61.902 184.103V189.53H59.4225V184.155L54.6511 174.591H57.4743L60.4122 180.998C60.4469 181.074 60.5511 181.363 60.7247 181.863H60.756C60.8185 181.64 60.9331 181.352 61.0998 180.998L64.1731 174.591H66.7984ZM71.2677 189.78C69.6217 189.78 68.3055 189.284 67.3193 188.291C66.34 187.29 65.8504 185.967 65.8504 184.321C65.8504 182.529 66.3609 181.13 67.3818 180.123C68.4097 179.116 69.7918 178.612 71.5282 178.612C73.195 178.612 74.4938 179.102 75.4245 180.081C76.3552 181.06 76.8205 182.418 76.8205 184.155C76.8205 185.856 76.317 187.221 75.3099 188.249C74.3098 189.27 72.9624 189.78 71.2677 189.78ZM71.3823 180.54C70.4378 180.54 69.6911 180.869 69.1425 181.529C68.5938 182.189 68.3194 183.099 68.3194 184.259C68.3194 185.377 68.5972 186.259 69.1529 186.905C69.7085 187.544 70.4516 187.863 71.3823 187.863C72.3338 187.863 73.0631 187.547 73.5701 186.915C74.084 186.283 74.341 185.384 74.341 184.217C74.341 183.043 74.084 182.137 73.5701 181.498C73.0631 180.859 72.3338 180.54 71.3823 180.54ZM88.5928 189.53H86.1758V187.843H86.1342C85.4327 189.134 84.3423 189.78 82.8629 189.78C80.3418 189.78 79.0812 188.266 79.0812 185.238V178.862H81.4982V184.988C81.4982 186.905 82.2378 187.863 83.7172 187.863C84.4326 187.863 85.0194 187.599 85.4778 187.072C85.9432 186.544 86.1758 185.853 86.1758 184.998V178.862H88.5928V189.53ZM97.9377 181.165C97.646 180.935 97.2258 180.821 96.6771 180.821C95.9618 180.821 95.3645 181.144 94.8853 181.79C94.406 182.436 94.1664 183.314 94.1664 184.425V189.53H91.7494V178.862H94.1664V181.06H94.2081C94.4442 180.31 94.8054 179.727 95.2916 179.31C95.7847 178.887 96.3334 178.675 96.9376 178.675C97.3751 178.675 97.7085 178.741 97.9377 178.873V181.165ZM118.461 189.53H115.752L108.616 178.55C108.436 178.272 108.286 177.984 108.168 177.685H108.106C108.161 178.005 108.189 178.689 108.189 179.737V189.53H105.793V174.591H108.679L115.575 185.311C115.867 185.755 116.055 186.061 116.138 186.228H116.18C116.11 185.832 116.075 185.162 116.075 184.217V174.591H118.461V189.53ZM130.088 189.53H127.744V187.863H127.702C126.966 189.141 125.886 189.78 124.462 189.78C123.413 189.78 122.59 189.496 121.993 188.926C121.402 188.357 121.107 187.603 121.107 186.665C121.107 184.651 122.267 183.477 124.587 183.144L127.754 182.696C127.754 181.175 127.032 180.415 125.587 180.415C124.316 180.415 123.17 180.852 122.149 181.727V179.612C123.274 178.946 124.573 178.612 126.045 178.612C128.74 178.612 130.088 179.939 130.088 182.592V189.53ZM127.754 184.29L125.514 184.603C124.82 184.693 124.295 184.863 123.941 185.113C123.594 185.356 123.42 185.787 123.42 186.405C123.42 186.856 123.58 187.228 123.899 187.52C124.226 187.804 124.66 187.947 125.202 187.947C125.938 187.947 126.545 187.69 127.025 187.176C127.511 186.655 127.754 186.002 127.754 185.217V184.29ZM148.996 189.53H146.579V183.717C146.579 182.599 146.419 181.79 146.1 181.29C145.787 180.79 145.256 180.54 144.506 180.54C143.874 180.54 143.336 180.856 142.891 181.488C142.454 182.12 142.235 182.877 142.235 183.759V189.53H139.808V183.519C139.808 181.533 139.106 180.54 137.703 180.54C137.05 180.54 136.512 180.838 136.088 181.436C135.672 182.033 135.463 182.807 135.463 183.759V189.53H133.046V178.862H135.463V180.55H135.505C136.276 179.258 137.398 178.612 138.87 178.612C139.606 178.612 140.249 178.817 140.797 179.227C141.353 179.63 141.731 180.161 141.933 180.821C142.725 179.348 143.905 178.612 145.475 178.612C147.822 178.612 148.996 180.06 148.996 182.957V189.53ZM160.977 184.853H153.705C153.733 185.839 154.035 186.599 154.611 187.134C155.195 187.669 155.994 187.936 157.008 187.936C158.147 187.936 159.192 187.596 160.143 186.915V188.864C159.171 189.475 157.886 189.78 156.289 189.78C154.719 189.78 153.486 189.298 152.59 188.332C151.701 187.36 151.257 185.995 151.257 184.238C151.257 182.578 151.747 181.227 152.726 180.185C153.712 179.137 154.934 178.612 156.393 178.612C157.851 178.612 158.98 179.081 159.779 180.019C160.577 180.956 160.977 182.259 160.977 183.925V184.853ZM158.643 183.144C158.636 182.276 158.431 181.602 158.029 181.123C157.626 180.637 157.07 180.394 156.362 180.394C155.667 180.394 155.077 180.647 154.591 181.154C154.111 181.661 153.816 182.325 153.705 183.144H158.643ZM181.427 189.53H178.937V183.05H171.905V189.53H169.426V174.591H171.905V180.873H178.937V174.591H181.427V189.53ZM193.877 184.853H186.605C186.633 185.839 186.935 186.599 187.511 187.134C188.095 187.669 188.894 187.936 189.908 187.936C191.047 187.936 192.092 187.596 193.043 186.915V188.864C192.071 189.475 190.786 189.78 189.189 189.78C187.619 189.78 186.386 189.298 185.49 188.332C184.601 187.36 184.157 185.995 184.157 184.238C184.157 182.578 184.646 181.227 185.626 180.185C186.612 179.137 187.834 178.612 189.293 178.612C190.751 178.612 191.88 179.081 192.679 180.019C193.477 180.956 193.877 182.259 193.877 183.925V184.853ZM191.543 183.144C191.536 182.276 191.331 181.602 190.929 181.123C190.526 180.637 189.97 180.394 189.262 180.394C188.567 180.394 187.977 180.647 187.491 181.154C187.011 181.661 186.716 182.325 186.605 183.144H191.543ZM202.367 181.165C202.076 180.935 201.656 180.821 201.107 180.821C200.392 180.821 199.794 181.144 199.315 181.79C198.836 182.436 198.596 183.314 198.596 184.425V189.53H196.179V178.862H198.596V181.06H198.638C198.874 180.31 199.235 179.727 199.721 179.31C200.214 178.887 200.763 178.675 201.367 178.675C201.805 178.675 202.138 178.741 202.367 178.873V181.165ZM212.921 184.853H205.649C205.677 185.839 205.979 186.599 206.555 187.134C207.139 187.669 207.938 187.936 208.952 187.936C210.091 187.936 211.136 187.596 212.087 186.915V188.864C211.115 189.475 209.83 189.78 208.233 189.78C206.663 189.78 205.43 189.298 204.534 188.332C203.645 187.36 203.201 185.995 203.201 184.238C203.201 182.578 203.691 181.227 204.67 180.185C205.656 179.137 206.878 178.612 208.337 178.612C209.795 178.612 210.924 179.081 211.723 180.019C212.521 180.956 212.921 182.259 212.921 183.925V184.853ZM210.587 183.144C210.58 182.276 210.375 181.602 209.973 181.123C209.57 180.637 209.014 180.394 208.306 180.394C207.611 180.394 207.021 180.647 206.535 181.154C206.055 181.661 205.76 182.325 205.649 183.144H210.587Z" fill="#A88C42"/>
<path d="M274.944 50.3956C274.144 49.4945 272.765 49.4126 271.864 50.2126C270.962 51.0126 270.88 52.3916 271.68 53.2927L274.944 50.3956ZM271.517 94.0186C270.71 94.9131 270.78 96.2928 271.675 97.0999C272.57 97.9073 273.949 97.8363 274.757 96.9417L271.517 94.0186ZM251.013 73.5729C251.017 72.3679 250.044 71.3872 248.839 71.3823C247.634 71.3775 246.654 72.3503 246.649 73.5553L251.013 73.5729ZM246.649 73.5772C246.644 74.7822 247.617 75.7629 248.822 75.7677C250.027 75.7726 251.008 74.7997 251.012 73.5947L246.649 73.5772ZM255.265 79.4602C254.451 80.3482 254.511 81.7285 255.399 82.5428C256.287 83.3573 257.667 83.2974 258.481 82.4094L255.265 79.4602ZM263.308 86.8309C262.493 87.7189 262.553 89.0991 263.441 89.9135C264.329 90.7278 265.71 90.6681 266.524 89.7801L263.308 86.8309ZM258.552 64.7967C257.745 63.9021 256.365 63.8312 255.471 64.6384C254.576 65.4457 254.505 66.8253 255.312 67.7199L258.552 64.7967ZM266.654 57.4909C265.847 56.5963 264.467 56.5254 263.572 57.3326C262.678 58.1399 262.607 59.5195 263.414 60.4141L266.654 57.4909ZM271.68 53.2927C276.497 58.7176 279.407 65.8623 279.376 73.6869L283.739 73.7044C283.775 64.765 280.445 56.5924 274.944 50.3956L271.68 53.2927ZM279.376 73.6869C279.344 81.5114 276.377 88.6326 271.517 94.0186L274.757 96.9417C280.308 90.7894 283.704 82.6437 283.739 73.7044L279.376 73.6869ZM246.649 73.5553L246.649 73.5772L251.012 73.5947L251.013 73.5729L246.649 73.5553ZM257.558 73.5992C257.549 75.8611 256.683 77.9142 255.265 79.4602L258.481 82.4094C260.604 80.0943 261.908 77.0064 261.922 73.6167L257.558 73.5992ZM268.467 73.643C268.446 78.7308 266.496 83.3543 263.308 86.8309L266.524 89.7801C270.417 85.5344 272.806 79.8758 272.83 73.6606L268.467 73.643ZM255.312 67.7199C256.718 69.2773 257.567 71.3373 257.558 73.5992L261.922 73.6167C261.935 70.2271 260.656 67.1288 258.552 64.7967L255.312 67.7199ZM263.414 60.4141C266.574 63.9163 268.487 68.5554 268.467 73.643L272.83 73.6606C272.855 67.4452 270.513 61.7678 266.654 57.4909L263.414 60.4141Z" fill="#A88C42"/>
<path d="M256.288 100.334V107.607H255.116L251.689 102.653H251.629V107.607H250.311V100.334H251.49L254.913 105.292H254.977V100.334H256.288ZM257.723 107.607V100.334H262.382V101.439H259.041V103.413H262.063V104.517H259.041V107.607H257.723ZM269.808 102.788H268.48C268.442 102.57 268.372 102.377 268.27 102.209C268.168 102.039 268.042 101.894 267.89 101.776C267.739 101.658 267.566 101.569 267.372 101.51C267.18 101.448 266.973 101.417 266.75 101.417C266.355 101.417 266.004 101.517 265.699 101.716C265.394 101.912 265.155 102.201 264.982 102.582C264.809 102.961 264.722 103.424 264.722 103.971C264.722 104.527 264.809 104.996 264.982 105.377C265.157 105.756 265.396 106.042 265.699 106.236C266.004 106.428 266.354 106.524 266.747 106.524C266.964 106.524 267.168 106.495 267.357 106.439C267.549 106.379 267.721 106.293 267.872 106.179C268.026 106.066 268.155 105.926 268.259 105.76C268.366 105.595 268.439 105.405 268.48 105.192L269.808 105.199C269.758 105.545 269.65 105.869 269.485 106.172C269.321 106.475 269.107 106.743 268.842 106.975C268.577 107.204 268.267 107.384 267.911 107.515C267.556 107.642 267.162 107.706 266.729 107.706C266.09 107.706 265.519 107.558 265.017 107.262C264.515 106.967 264.12 106.539 263.831 105.981C263.542 105.422 263.398 104.752 263.398 103.971C263.398 103.187 263.544 102.517 263.835 101.961C264.126 101.402 264.522 100.975 265.024 100.679C265.526 100.383 266.094 100.235 266.729 100.235C267.134 100.235 267.51 100.292 267.858 100.405C268.206 100.519 268.516 100.686 268.789 100.906C269.061 101.124 269.285 101.391 269.46 101.708C269.637 102.023 269.753 102.383 269.808 102.788Z" fill="#A88C42"/>
<defs>
<filter id="filter0_d_372_10404" x="243.304" y="107.304" width="351.469" height="236.482" filterUnits="userSpaceOnUse" color-interpolation-filters="sRGB">
<feFlood flood-opacity="0" result="BackgroundImageFix"/>
<feColorMatrix in="SourceAlpha" type="matrix" values="0 0 0 0 0 0 0 0 0 0 0 0 0 0 0 0 0 0 127 0" result="hardAlpha"/>
<feOffset/>
<feGaussianBlur stdDeviation="10.8478"/>
<feComposite in2="hardAlpha" operator="out"/>
<feColorMatrix type="matrix" values="0 0 0 0 0 0 0 0 0 0 0 0 0 0 0 0 0 0 0.14 0"/>
<feBlend mode="normal" in2="BackgroundImageFix" result="effect1_dropShadow_372_10404"/>
<feBlend mode="normal" in="SourceGraphic" in2="effect1_dropShadow_372_10404" result="shape"/>
</filter>
<filter id="filter1_d_372_10404" x="0.304403" y="0.304403" width="351.469" height="236.482" filterUnits="userSpaceOnUse" color-interpolation-filters="sRGB">
<feFlood flood-opacity="0" result="BackgroundImageFix"/>
<feColorMatrix in="SourceAlpha" type="matrix" values="0 0 0 0 0 0 0 0 0 0 0 0 0 0 0 0 0 0 127 0" result="hardAlpha"/>
<feOffset/>
<feGaussianBlur stdDeviation="10.8478"/>
<feComposite in2="hardAlpha" operator="out"/>
<feColorMatrix type="matrix" values="0 0 0 0 0 0 0 0 0 0 0 0 0 0 0 0 0 0 0.14 0"/>
<feBlend mode="normal" in2="BackgroundImageFix" result="effect1_dropShadow_372_10404"/>
<feBlend mode="normal" in="SourceGraphic" in2="effect1_dropShadow_372_10404" result="shape"/>
</filter>
<filter id="filter2_d_372_10404" x="0.304403" y="186.995" width="351.696" height="49.7921" filterUnits="userSpaceOnUse" color-interpolation-filters="sRGB">
<feFlood flood-opacity="0" result="BackgroundImageFix"/>
<feColorMatrix in="SourceAlpha" type="matrix" values="0 0 0 0 0 0 0 0 0 0 0 0 0 0 0 0 0 0 127 0" result="hardAlpha"/>
<feOffset/>
<feGaussianBlur stdDeviation="10.8478"/>
<feComposite in2="hardAlpha" operator="out"/>
<feColorMatrix type="matrix" values="0 0 0 0 0 0 0 0 0 0 0 0 0 0 0 0 0 0 0.14 0"/>
<feBlend mode="normal" in2="BackgroundImageFix" result="effect1_dropShadow_372_10404"/>
<feBlend mode="normal" in="SourceGraphic" in2="effect1_dropShadow_372_10404" result="shape"/>
</filter>
</defs>
</svg>
