<svg width="241" height="162" viewBox="0 0 241 162" fill="none" xmlns="http://www.w3.org/2000/svg">
<g filter="url(#filter0_d_372_7916)">
<rect x="15" y="15" width="210.774" height="132.105" rx="5.47326" fill="white"/>
</g>
<g filter="url(#filter1_d_372_7916)">
<path d="M15 142.726L225.93 142.726C225.93 145.144 223.969 147.105 221.55 147.105L19.3792 147.105C16.9606 147.105 15 145.144 15 142.726Z" fill="#1458E9"/>
</g>
<path d="M52.7606 33.3628L40.7812 33.3628L40.7812 45.3421H52.7606V33.3628ZM51.0962 43.6778H42.4456L42.4456 35.0272L51.0962 35.0272V43.6778Z" fill="black"/>
<path d="M49.3705 36.7539H44.1719V41.9525H49.3705V36.7539Z" fill="black"/>
<path d="M64.9141 33.3628V45.3421H76.8934V33.3628L64.9141 33.3628ZM75.229 43.6778H66.5784V35.0272L75.229 35.0272V43.6778Z" fill="black"/>
<path d="M73.5033 36.7544H68.3047V41.953H73.5033V36.7544Z" fill="black"/>
<path d="M40.7812 69.3216H52.7606V57.3423L40.7812 57.3423L40.7812 69.3216ZM42.4456 59.0067L51.0962 59.0067V67.6573H42.4456L42.4456 59.0067Z" fill="black"/>
<path d="M49.3705 60.7319H44.1719V65.9305H49.3705V60.7319Z" fill="black"/>
<path d="M44.1716 47.0493H40.7812V48.7698H44.1716V47.0493Z" fill="black"/>
<path d="M51.0663 48.8518H52.7948V50.4992H49.3711V50.7346V52.22V53.9351V55.6556V55.6564H51.0663V55.6556H54.5389V53.9351H51.0663V52.22H54.5389V53.9343H56.234V52.22V50.7346V50.4992H54.49V47.1255H52.7948V47.1313H51.0663V48.8518Z" fill="black"/>
<path d="M61.2788 52.2207V53.9414H59.5836V55.6566H57.8884V57.3782H56.2343V59.0878H54.5391V55.6575L56.2343 55.6566V53.9362H57.9295V52.2207H61.2788Z" fill="black"/>
<path d="M64.7783 60.7319V59.0867V59.0112V57.3662L63.0831 57.3662V59.0112H57.929V60.7319H59.6036V62.5545H57.929V60.7319H56.2338V62.5193H54.4961V64.24H56.2338V65.9305H54.4961L54.4961 69.3209H56.2338H57.8454H57.929L57.929 65.9305H59.6036V64.2072H61.2988V60.7319H64.7783Z" fill="black"/>
<path d="M62.9961 65.9312V67.6517H68.1605V69.3722H73.3722V67.6517H69.8454V65.9312V64.208H68.1502V65.9312H62.9961Z" fill="black"/>
<path d="M62.9948 67.6504H59.625V69.3708H62.9948V67.6504Z" fill="black"/>
<path d="M64.8107 50.5H61.2773V52.2205H64.8107V50.5Z" fill="black"/>
<path d="M74.9363 52.2219V53.9199H76.6243V55.6434H74.9291V53.9199H73.2339V55.6434H71.5387V53.9199H69.8555V50.5012L73.215 50.4981V48.8254H71.4779V47.105H74.9105V48.8254H74.9102V50.5012H76.6759V52.2219H74.9363Z" fill="black"/>
<path d="M59.5859 55.6564V57.3769H61.2811V55.6609H62.9763V53.9404H61.2811V55.6564H59.5859Z" fill="black"/>
<path d="M62.9921 64.208H61.2969V65.9312H62.9921V64.208Z" fill="black"/>
<path d="M73.2382 64.2061H71.543V65.9293H73.2382V64.2061Z" fill="black"/>
<path d="M66.4764 53.9404H64.7812V55.6609H66.4764V53.9404Z" fill="black"/>
<path d="M64.8125 50.4996H66.5077V48.8272H69.93V47.1064H64.8125V48.8272V50.4996Z" fill="black"/>
<path d="M42.4764 50.4927H40.7812V55.6571H42.4764V50.4927Z" fill="black"/>
<path d="M56.1751 47.1317H56.2323V50.4996H57.9275V48.7275H59.6227V47.1317H62.1447V47.1258H63.0909L63.0909 40.2307H61.3957V42.018H59.6227V43.7132H61.3957L61.3957 45.4365H59.6227L59.6227 43.7132H57.9275L57.9275 45.4365H56.1835L56.1835 40.2584H57.8787V33.3633H56.1835V35.0871H54.4883V38.5347H56.1835V40.2307H54.4883L54.4883 47.1258H56.1751V47.1317Z" fill="black"/>
<path d="M74.9338 59.0673V60.8663H73.2386V59.0673H71.5426V55.6425H69.8591V53.9189H68.1639V55.6608H66.4795V60.7317H64.7812V62.4524H66.3196V64.2073H68.1511V62.4524H69.8463V60.7275L69.8474 60.7297H71.5426V60.7225L71.5434 60.7297V62.4504H73.2386V64.2053H74.9338V67.6324H76.629V59.0675L74.9338 59.0675V59.0673ZM69.8463 59.009H68.1747V57.3549H69.8474L69.8463 59.009Z" fill="black"/>
<path d="M74.9296 55.6431H73.2344V59.0679H74.9296V55.6431Z" fill="black"/>
<path d="M71.5437 62.4512H69.8477V64.2061H71.5437V62.4512Z" fill="black"/>
<path d="M63.0798 35.059V33.3638H61.3979H60.1028H59.625V36.8408H61.3979V35.059H63.0798Z" fill="black"/>
<path d="M61.3979 38.5361H59.625V40.2313H61.3979V38.5361Z" fill="black"/>
<path d="M63.1714 36.8403H61.3984V38.5355H63.1714V36.8403Z" fill="black"/>
<path d="M47.5624 53.9351H45.8672V55.6572H47.5624V53.9351Z" fill="black"/>
<path d="M47.5623 52.2968V47.1323H45.8671V48.7709H44.1719V53.9353H45.8671V52.2968H47.5623Z" fill="black"/>
<path d="M37.9364 38.3228C37.566 38.3228 37.2656 38.0224 37.2656 37.652V30.5145C37.2656 30.1441 37.566 29.8438 37.9364 29.8438H45.0736C45.444 29.8438 45.7444 30.1441 45.7444 30.5145C45.7444 30.8849 45.444 31.1852 45.0736 31.1852H38.6071V37.6517C38.6071 38.0221 38.3067 38.3225 37.9364 38.3225V38.3228Z" fill="black"/>
<path d="M79.7455 38.3235C79.3751 38.3235 79.0748 38.0231 79.0748 37.6527V31.1862L72.6082 31.1862C72.2379 31.1862 71.9375 30.8858 71.9375 30.5155C71.9375 30.1451 72.2379 29.8447 72.6082 29.8447L79.7455 29.8447C80.1159 29.8447 80.4162 30.1451 80.4162 30.5155V37.6527C80.4162 38.0231 80.1159 38.3235 79.7455 38.3235Z" fill="black"/>
<path d="M45.0736 72.8894H37.9364C37.566 72.8894 37.2656 72.589 37.2656 72.2186V65.0814C37.2656 64.711 37.566 64.4106 37.9364 64.4106C38.3067 64.4106 38.6071 64.711 38.6071 65.0814V71.5479H45.0736C45.444 71.5479 45.7444 71.8483 45.7444 72.2186C45.7444 72.589 45.444 72.8894 45.0736 72.8894Z" fill="black"/>
<path d="M79.7455 72.8899H72.6082C72.2379 72.8899 71.9375 72.5895 71.9375 72.2191C71.9375 71.8488 72.2379 71.5484 72.6082 71.5484H79.0748V65.0819C79.0748 64.7115 79.3751 64.4111 79.7455 64.4111C80.1159 64.4111 80.4162 64.7115 80.4162 65.0819V72.2191C80.4162 72.5895 80.1159 72.8899 79.7455 72.8899Z" fill="black"/>
<path d="M45.6476 118.713L42.2977 125.221V128.934H40.6013V125.256L37.3369 118.713H39.2685L41.2784 123.097C41.3022 123.149 41.3735 123.346 41.4923 123.688H41.5136C41.5564 123.536 41.6348 123.339 41.7488 123.097L43.8515 118.713H45.6476ZM48.7053 129.105C47.5792 129.105 46.6787 128.765 46.004 128.086C45.334 127.402 44.999 126.496 44.999 125.37C44.999 124.144 45.3483 123.187 46.0468 122.498C46.75 121.809 47.6956 121.464 48.8835 121.464C50.0239 121.464 50.9125 121.799 51.5492 122.469C52.1859 123.139 52.5043 124.068 52.5043 125.256C52.5043 126.42 52.1598 127.354 51.4708 128.057C50.7866 128.756 49.8647 129.105 48.7053 129.105ZM48.7837 122.783C48.1375 122.783 47.6267 123.009 47.2513 123.46C46.8759 123.912 46.6882 124.534 46.6882 125.328C46.6882 126.093 46.8783 126.696 47.2584 127.138C47.6386 127.575 48.147 127.794 48.7837 127.794C49.4347 127.794 49.9336 127.577 50.2805 127.145C50.6321 126.713 50.8079 126.097 50.8079 125.299C50.8079 124.496 50.6321 123.876 50.2805 123.439C49.9336 123.002 49.4347 122.783 48.7837 122.783ZM60.5584 128.934H58.9048V127.779H58.8763C58.3964 128.663 57.6504 129.105 56.6383 129.105C54.9134 129.105 54.051 128.069 54.051 125.998V121.635H55.7046V125.826C55.7046 127.138 56.2106 127.794 57.2227 127.794C57.7122 127.794 58.1137 127.613 58.4273 127.252C58.7456 126.891 58.9048 126.418 58.9048 125.834V121.635H60.5584V128.934ZM66.9518 123.211C66.7522 123.054 66.4648 122.975 66.0894 122.975C65.6 122.975 65.1913 123.196 64.8635 123.638C64.5356 124.08 64.3717 124.681 64.3717 125.442V128.934H62.7181V121.635H64.3717V123.139H64.4002C64.5617 122.626 64.8088 122.227 65.1414 121.942C65.4788 121.652 65.8542 121.507 66.2676 121.507C66.5669 121.507 66.795 121.552 66.9518 121.643V123.211ZM80.9931 128.934H79.1399L74.2575 121.422C74.134 121.232 74.0318 121.034 73.9511 120.83H73.9083C73.9463 121.049 73.9653 121.517 73.9653 122.234V128.934H72.326V118.713H74.3003L79.0187 126.047C79.2183 126.352 79.3466 126.561 79.4036 126.675H79.4321C79.3846 126.404 79.3609 125.945 79.3609 125.299V118.713H80.9931V128.934ZM88.9474 128.934H87.3437V127.794H87.3152C86.8115 128.668 86.0726 129.105 85.0985 129.105C84.381 129.105 83.8179 128.91 83.4093 128.521C83.0054 128.131 82.8035 127.615 82.8035 126.974C82.8035 125.596 83.597 124.793 85.1841 124.565L87.3508 124.258C87.3508 123.218 86.8567 122.697 85.8683 122.697C84.9987 122.697 84.2147 122.997 83.5162 123.596V122.149C84.286 121.693 85.1746 121.464 86.1819 121.464C88.0256 121.464 88.9474 122.372 88.9474 124.187V128.934ZM87.3508 125.349L85.8184 125.563C85.3432 125.625 84.9845 125.741 84.7422 125.912C84.5046 126.078 84.3858 126.373 84.3858 126.796C84.3858 127.105 84.4951 127.359 84.7136 127.558C84.937 127.753 85.234 127.851 85.6046 127.851C86.1083 127.851 86.524 127.675 86.8519 127.323C87.1845 126.967 87.3508 126.52 87.3508 125.983V125.349ZM101.884 128.934H100.23V124.957C100.23 124.192 100.121 123.638 99.9024 123.296C99.6886 122.954 99.3251 122.783 98.8119 122.783C98.3795 122.783 98.0113 122.999 97.7071 123.432C97.4078 123.864 97.2581 124.382 97.2581 124.985V128.934H95.5974V124.821C95.5974 123.463 95.1175 122.783 94.1576 122.783C93.711 122.783 93.3427 122.987 93.0529 123.396C92.7678 123.805 92.6252 124.334 92.6252 124.985V128.934H90.9716V121.635H92.6252V122.79H92.6537C93.1812 121.906 93.9486 121.464 94.9559 121.464C95.4596 121.464 95.8991 121.605 96.2745 121.885C96.6546 122.161 96.9136 122.524 97.0514 122.975C97.5931 121.968 98.4009 121.464 99.4748 121.464C101.081 121.464 101.884 122.455 101.884 124.437V128.934ZM110.081 125.734H105.106C105.125 126.409 105.331 126.929 105.726 127.295C106.125 127.661 106.671 127.844 107.365 127.844C108.144 127.844 108.859 127.611 109.51 127.145V128.478C108.845 128.896 107.966 129.105 106.873 129.105C105.799 129.105 104.956 128.775 104.343 128.114C103.735 127.449 103.431 126.515 103.431 125.313C103.431 124.178 103.766 123.253 104.436 122.541C105.11 121.823 105.947 121.464 106.944 121.464C107.942 121.464 108.714 121.785 109.261 122.427C109.807 123.068 110.081 123.959 110.081 125.099V125.734ZM108.484 124.565C108.479 123.971 108.339 123.51 108.063 123.182C107.788 122.85 107.408 122.683 106.923 122.683C106.448 122.683 106.044 122.857 105.711 123.204C105.384 123.55 105.182 124.004 105.106 124.565H108.484ZM124.072 128.934H122.368V124.501H117.557V128.934H115.861V118.713H117.557V123.011L122.368 123.011V118.713H124.072V128.934ZM132.589 125.734H127.614C127.633 126.409 127.84 126.929 128.234 127.295C128.634 127.661 129.18 127.844 129.874 127.844C130.653 127.844 131.368 127.611 132.019 127.145V128.478C131.354 128.896 130.475 129.105 129.382 129.105C128.308 129.105 127.465 128.775 126.852 128.114C126.243 127.449 125.939 126.515 125.939 125.313C125.939 124.178 126.274 123.253 126.944 122.541C127.619 121.823 128.455 121.464 129.453 121.464C130.451 121.464 131.223 121.785 131.77 122.427C132.316 123.068 132.589 123.959 132.589 125.099V125.734ZM130.993 124.565C130.988 123.971 130.848 123.51 130.572 123.182C130.297 122.85 129.916 122.683 129.432 122.683C128.957 122.683 128.553 122.857 128.22 123.204C127.892 123.55 127.69 124.004 127.614 124.565H130.993ZM138.398 123.211C138.199 123.054 137.911 122.975 137.536 122.975C137.046 122.975 136.638 123.196 136.31 123.638C135.982 124.08 135.818 124.681 135.818 125.442V128.934H134.164V121.635H135.818V123.139H135.847C136.008 122.626 136.255 122.227 136.588 121.942C136.925 121.652 137.301 121.507 137.714 121.507C138.013 121.507 138.241 121.552 138.398 121.643V123.211ZM145.618 125.734H140.643C140.662 126.409 140.869 126.929 141.264 127.295C141.663 127.661 142.209 127.844 142.903 127.844C143.682 127.844 144.397 127.611 145.048 127.145V128.478C144.383 128.896 143.504 129.105 142.411 129.105C141.337 129.105 140.494 128.775 139.881 128.114C139.273 127.449 138.968 126.515 138.968 125.313C138.968 124.178 139.303 123.253 139.973 122.541C140.648 121.823 141.484 121.464 142.482 121.464C143.48 121.464 144.252 121.785 144.799 122.427C145.345 123.068 145.618 123.959 145.618 125.099V125.734ZM144.022 124.565C144.017 123.971 143.877 123.51 143.601 123.182C143.326 122.85 142.946 122.683 142.461 122.683C141.986 122.683 141.582 122.857 141.249 123.204C140.921 123.55 140.719 124.004 140.643 124.565H144.022Z" fill="black"/>
<path d="M199.337 30.4538C198.905 29.9671 198.16 29.9228 197.673 30.355C197.187 30.7871 197.142 31.532 197.575 32.0188L199.337 30.4538ZM197.486 54.0179C197.05 54.5012 197.088 55.2464 197.572 55.6824C198.055 56.1185 198.8 56.0802 199.236 55.5969L197.486 54.0179ZM186.41 42.9737C186.413 42.3227 185.887 41.793 185.236 41.7904C184.585 41.7877 184.056 42.3133 184.053 42.9642L186.41 42.9737ZM184.053 42.976C184.05 43.6269 184.576 44.1566 185.227 44.1593C185.878 44.1619 186.408 43.6364 186.41 42.9854L184.053 42.976ZM188.707 46.1538C188.268 46.6335 188.3 47.3791 188.779 47.819C189.259 48.259 190.005 48.2266 190.445 47.747L188.707 46.1538ZM193.052 50.1353C192.612 50.615 192.644 51.3606 193.124 51.8005C193.604 52.2403 194.349 52.2081 194.789 51.7284L193.052 50.1353ZM190.483 38.233C190.047 37.7497 189.302 37.7114 188.818 38.1475C188.335 38.5835 188.297 39.3288 188.733 39.812L190.483 38.233ZM194.859 34.2865C194.423 33.8033 193.678 33.765 193.195 34.2011C192.711 34.6371 192.673 35.3823 193.109 35.8656L194.859 34.2865ZM197.575 32.0188C200.176 34.9492 201.748 38.8086 201.731 43.0352L204.089 43.0447C204.108 38.2159 202.309 33.8012 199.337 30.4538L197.575 32.0188ZM201.731 43.0352C201.714 47.2619 200.111 51.1086 197.486 54.0179L199.236 55.5969C202.235 52.2736 204.069 47.8735 204.089 43.0447L201.731 43.0352ZM184.053 42.9642L184.053 42.976L186.41 42.9854L186.41 42.9737L184.053 42.9642ZM189.946 42.9879C189.941 44.2097 189.473 45.3187 188.707 46.1538L190.445 47.747C191.591 46.4964 192.296 44.8283 192.303 42.9973L189.946 42.9879ZM195.839 43.0115C195.828 45.7598 194.774 48.2573 193.052 50.1353L194.789 51.7284C196.892 49.435 198.182 46.3784 198.196 43.021L195.839 43.0115ZM188.733 39.812C189.492 40.6533 189.951 41.7661 189.946 42.9879L192.303 42.9973C192.31 41.1663 191.62 39.4927 190.483 38.233L188.733 39.812ZM193.109 35.8656C194.816 37.7574 195.85 40.2633 195.839 43.0115L198.196 43.021C198.209 39.6636 196.944 36.5968 194.859 34.2865L193.109 35.8656Z" fill="black"/>
<path d="M193.823 59.7795V63.708H193.19L191.339 61.0321H191.306V63.708H190.595V59.7795H191.231L193.081 62.4573H193.115V59.7795H193.823ZM194.598 63.708V59.7795H197.115V60.376H195.31V61.4426H196.942V62.0391H195.31V63.708H194.598ZM201.126 61.105H200.409C200.388 60.9873 200.351 60.8831 200.296 60.7923C200.241 60.7002 200.172 60.6222 200.09 60.5583C200.008 60.4943 199.915 60.4464 199.81 60.4144C199.707 60.3811 199.595 60.3645 199.475 60.3645C199.261 60.3645 199.072 60.4182 198.907 60.5256C198.742 60.6318 198.613 60.7878 198.519 60.9937C198.426 61.1983 198.379 61.4483 198.379 61.7437C198.379 62.0443 198.426 62.2975 198.519 62.5034C198.614 62.708 198.743 62.8627 198.907 62.9676C199.072 63.0712 199.26 63.1229 199.473 63.1229C199.59 63.1229 199.7 63.1076 199.803 63.0769C199.906 63.0449 199.999 62.9983 200.081 62.9369C200.164 62.8755 200.234 62.8 200.29 62.7105C200.347 62.621 200.387 62.5187 200.409 62.4036L201.126 62.4074C201.099 62.5941 201.041 62.7693 200.952 62.933C200.863 63.0967 200.748 63.2412 200.604 63.3666C200.461 63.4906 200.294 63.5878 200.102 63.6581C199.91 63.7272 199.697 63.7617 199.463 63.7617C199.118 63.7617 198.81 63.6818 198.538 63.5219C198.267 63.3621 198.054 63.1313 197.898 62.8295C197.742 62.5277 197.664 62.1657 197.664 61.7437C197.664 61.3204 197.742 60.9585 197.9 60.658C198.057 60.3562 198.271 60.1254 198.542 59.9655C198.813 59.8057 199.12 59.7257 199.463 59.7257C199.682 59.7257 199.885 59.7564 200.073 59.8178C200.261 59.8792 200.429 59.9694 200.576 60.0883C200.723 60.2059 200.844 60.3504 200.938 60.5218C201.034 60.6919 201.097 60.8863 201.126 61.105Z" fill="black"/>
<defs>
<filter id="filter0_d_372_7916" x="0.156783" y="0.156783" width="240.46" height="161.791" filterUnits="userSpaceOnUse" color-interpolation-filters="sRGB">
<feFlood flood-opacity="0" result="BackgroundImageFix"/>
<feColorMatrix in="SourceAlpha" type="matrix" values="0 0 0 0 0 0 0 0 0 0 0 0 0 0 0 0 0 0 127 0" result="hardAlpha"/>
<feOffset/>
<feGaussianBlur stdDeviation="7.42161"/>
<feComposite in2="hardAlpha" operator="out"/>
<feColorMatrix type="matrix" values="0 0 0 0 0 0 0 0 0 0 0 0 0 0 0 0 0 0 0.14 0"/>
<feBlend mode="normal" in2="BackgroundImageFix" result="effect1_dropShadow_372_7916"/>
<feBlend mode="normal" in="SourceGraphic" in2="effect1_dropShadow_372_7916" result="shape"/>
</filter>
<filter id="filter1_d_372_7916" x="0.156783" y="127.882" width="240.616" height="34.0658" filterUnits="userSpaceOnUse" color-interpolation-filters="sRGB">
<feFlood flood-opacity="0" result="BackgroundImageFix"/>
<feColorMatrix in="SourceAlpha" type="matrix" values="0 0 0 0 0 0 0 0 0 0 0 0 0 0 0 0 0 0 127 0" result="hardAlpha"/>
<feOffset/>
<feGaussianBlur stdDeviation="7.42161"/>
<feComposite in2="hardAlpha" operator="out"/>
<feColorMatrix type="matrix" values="0 0 0 0 0 0 0 0 0 0 0 0 0 0 0 0 0 0 0.14 0"/>
<feBlend mode="normal" in2="BackgroundImageFix" result="effect1_dropShadow_372_7916"/>
<feBlend mode="normal" in="SourceGraphic" in2="effect1_dropShadow_372_7916" result="shape"/>
</filter>
</defs>
</svg>
